<svg width="256" height="256" viewBox="0 0 256 256" fill="none" xmlns="http://www.w3.org/2000/svg">
<path d="M0 0H256V222L77.5 255.5L0 222V0Z" fill="#FFD400"/>
<g clip-path="url(#clip0_5_20)">
<path d="M178 97C178 111.344 173.344 124.594 165.5 135.344L205.063 174.938C208.969 178.844 208.969 185.188 205.063 189.094C201.156 193 194.812 193 190.906 189.094L151.344 149.5C140.594 157.375 127.344 162 113 162C77.0937 162 48 132.906 48 97C48 61.0938 77.0937 32 113 32C148.906 32 178 61.0938 178 97ZM113 142C118.909 142 124.761 140.836 130.221 138.575C135.68 136.313 140.641 132.998 144.82 128.82C148.998 124.641 152.313 119.68 154.575 114.221C156.836 108.761 158 102.909 158 97C158 91.0905 156.836 85.2389 154.575 79.7792C152.313 74.3196 148.998 69.3588 144.82 65.1802C140.641 61.0016 135.68 57.6869 130.221 55.4254C124.761 53.164 118.909 52 113 52C107.091 52 101.239 53.164 95.7792 55.4254C90.3196 57.6869 85.3588 61.0016 81.1802 65.1802C77.0016 69.3588 73.6869 74.3196 71.4254 79.7792C69.164 85.2389 68 91.0905 68 97C68 102.909 69.164 108.761 71.4254 114.221C73.6869 119.68 77.0016 124.641 81.1802 128.82C85.3588 132.998 90.3196 136.313 95.7792 138.575C101.239 140.836 107.091 142 113 142Z" fill="#171E28"/>
</g>
<path d="M119.728 90.0078L119.726 90.0089L113.66 93.9787L113.66 93.9789C109.75 96.5399 107.4 100.944 107.4 105.655V105.875C107.4 109.002 109.886 111.562 113 111.562C116.114 111.562 118.6 109.002 118.6 105.875V105.67C118.6 104.803 119.036 104.005 119.73 103.547C119.731 103.546 119.731 103.546 119.732 103.546L125.795 99.578L125.797 99.5769C131.342 95.933 134.7 89.6846 134.7 82.9648V82.4375C134.7 71.5466 126.033 62.6875 115.3 62.6875H110.7C99.9669 62.6875 91.3 71.5466 91.3 82.4375C91.3 85.5647 93.7857 88.125 96.9 88.125C100.014 88.125 102.5 85.5647 102.5 82.4375C102.5 77.801 106.196 74.0625 110.7 74.0625H115.3C119.804 74.0625 123.5 77.801 123.5 82.4375V82.9648C123.5 85.8268 122.07 88.4821 119.728 90.0078ZM113 130.312C114.796 130.312 116.515 129.585 117.78 128.297C119.043 127.009 119.75 125.266 119.75 123.453C119.75 121.64 119.043 119.897 117.78 118.61C116.515 117.321 114.796 116.594 113 116.594C111.204 116.594 109.485 117.321 108.22 118.61C106.957 119.897 106.25 121.64 106.25 123.453C106.25 125.266 106.957 127.009 108.22 128.297C109.485 129.585 111.204 130.312 113 130.312Z" fill="#171E28" stroke="#171E28" stroke-width="2"/>
<defs>
<clipPath id="clip0_5_20">
<rect width="160" height="160" fill="white" transform="translate(48 32)"/>
</clipPath>
</defs>
</svg>
