<svg width="192" height="192" viewBox="0 0 192 192" fill="none" xmlns="http://www.w3.org/2000/svg">
<g clip-path="url(#clip0_13_6)">
<path d="M156 78C156 95.2125 150.412 111.113 141 124.013L188.475 171.525C193.162 176.212 193.162 183.825 188.475 188.513C183.787 193.2 176.175 193.2 171.487 188.513L124.012 141C111.112 150.45 95.2125 156 78 156C34.9125 156 0 121.088 0 78C0 34.9125 34.9125 0 78 0C121.087 0 156 34.9125 156 78ZM78 132C85.0914 132 92.1133 130.603 98.6649 127.889C105.216 125.176 111.169 121.198 116.184 116.184C121.198 111.169 125.176 105.216 127.889 98.6649C130.603 92.1133 132 85.0914 132 78C132 70.9086 130.603 63.8867 127.889 57.3351C125.176 50.7835 121.198 44.8306 116.184 39.8162C111.169 34.8019 105.216 30.8243 98.6649 28.1105C92.1133 25.3968 85.0914 24 78 24C70.9086 24 63.8867 25.3968 57.3351 28.1105C50.7835 30.8243 44.8306 34.8019 39.8162 39.8162C34.8019 44.8306 30.8243 50.7835 28.1105 57.3351C25.3967 63.8867 24 70.9086 24 78C24 85.0914 25.3967 92.1133 28.1105 98.6649C30.8243 105.216 34.8019 111.169 39.8162 116.184C44.8306 121.198 50.7835 125.176 57.3351 127.889C63.8867 130.603 70.9086 132 78 132Z" fill="#171E28"/>
</g>
<path d="M86.3146 70.3734L86.3129 70.3745L78.9279 75.1382L78.9275 75.1384C74.2309 78.1712 71.4 83.3926 71.4 88.9863V89.25C71.4 92.9094 74.346 95.875 78 95.875C81.654 95.875 84.6 92.9094 84.6 89.25V89.0039C84.6 87.9036 85.1615 86.8829 86.0682 86.2927C86.0688 86.2923 86.0694 86.292 86.0699 86.2916L93.452 81.5298L93.4536 81.5288C100.143 77.1963 104.2 69.7614 104.2 61.7578V61.125C104.2 48.1492 93.729 37.625 80.8 37.625H75.2C62.271 37.625 51.8 48.1492 51.8 61.125C51.8 64.7844 54.746 67.75 58.4 67.75C62.054 67.75 65 64.7844 65 61.125C65 55.468 69.579 50.875 75.2 50.875H80.8C86.421 50.875 91 55.468 91 61.125V61.7578C91 65.2519 89.2286 68.5021 86.3146 70.3734ZM78 118.375C80.1232 118.375 82.1585 117.528 83.6584 116.021C85.1582 114.515 86 112.472 86 110.344C86 108.215 85.1582 106.173 83.6584 104.666C82.1585 103.16 80.1232 102.312 78 102.312C75.8768 102.312 73.8415 103.16 72.3416 104.666C70.8418 106.173 70 108.215 70 110.344C70 112.472 70.8418 114.515 72.3416 116.021C73.8415 117.528 75.8768 118.375 78 118.375Z" fill="#171E28" stroke="#171E28" stroke-width="2"/>
<defs>
<clipPath id="clip0_13_6">
<rect width="192" height="192" fill="white"/>
</clipPath>
</defs>
</svg>
